HIERARCHY
ROOT root
{
	OFFSET 0.000000 0.000000 0.000000
	CHANNELS 6 Xposition Yposition Zposition Zrotation Yrotation Xrotation
	JOINT lhip
	{
		OFFSET 0.058581 -0.082280 -0.017664
		CHANNELS 3 Zrotation Yrotation Xrotation
		JOINT lknee
		{
			OFFSET 0.043451 -0.386469 0.008037
			CHANNELS 3 Zrotation Yrotation Xrotation
			JOINT lankle
			{
				OFFSET -0.014790 -0.426874 -0.037428
				CHANNELS 3 Zrotation Yrotation Xrotation
				JOINT ltoe
				{
					OFFSET 0.041054 -0.060286 0.122042
					CHANNELS 3 Zrotation Yrotation Xrotation
					End Site
					{
						OFFSET 0.000000 0.000000 0.000000
					}
				}
			}
		}
	}
	JOINT rhip
	{
		OFFSET -0.060310 -0.090513 -0.013543
		CHANNELS 3 Zrotation Yrotation Xrotation
		JOINT rknee
		{
			OFFSET -0.043257 -0.383688 -0.004843
			CHANNELS 3 Zrotation Yrotation Xrotation
			JOINT rankle
			{
				OFFSET 0.019056 -0.420046 -0.034562
				CHANNELS 3 Zrotation Yrotation Xrotation
				JOINT rtoe
				{
					OFFSET -0.034840 -0.062106 0.130323
					CHANNELS 3 Zrotation Yrotation Xrotation
					End Site
					{
						OFFSET 0.000000 0.000000 0.000000
					}
				}
			}
		}
	}
	JOINT lowerback
	{
		OFFSET 0.004439 0.124404 -0.038385
		CHANNELS 3 Zrotation Yrotation Xrotation
		JOINT upperback
		{
			OFFSET 0.004488 0.137956 0.026820
			CHANNELS 3 Zrotation Yrotation Xrotation
			JOINT chest
			{
				OFFSET -0.002265 0.056032 0.002855
				CHANNELS 3 Zrotation Yrotation Xrotation
				JOINT lowerneck
				{
					OFFSET -0.013390 0.211636 -0.033468
					CHANNELS 3 Zrotation Yrotation Xrotation
					JOINT upperneck
					{
						OFFSET 0.010113 0.088937 0.050410
						CHANNELS 3 Zrotation Yrotation Xrotation
						End Site
						{
							OFFSET 0.000000 0.000000 0.000000
						}
					}
				}
				JOINT lclavicle
				{
					OFFSET 0.071702 0.114000 -0.018898
					CHANNELS 3 Zrotation Yrotation Xrotation
					JOINT lshoulder
					{
						OFFSET 0.122921 0.045205 -0.019046
						CHANNELS 3 Zrotation Yrotation Xrotation
						JOINT lelbow
						{
							OFFSET 0.255332 -0.015649 -0.022946
							CHANNELS 3 Zrotation Yrotation Xrotation
							JOINT lwrist
							{
								OFFSET 0.265709 0.012698 -0.007375
								CHANNELS 3 Zrotation Yrotation Xrotation
								End Site
								{
									OFFSET 0.000000 0.000000 0.000000
								}
							}
						}
					}
				}
				JOINT rclavicle
				{
					OFFSET -0.082954 0.112472 -0.023707
					CHANNELS 3 Zrotation Yrotation Xrotation
					JOINT rshoulder
					{
						OFFSET -0.113228 0.046853 -0.008472
						CHANNELS 3 Zrotation Yrotation Xrotation
						JOINT relbow
						{
							OFFSET -0.260127 -0.014369 -0.031269
							CHANNELS 3 Zrotation Yrotation Xrotation
							JOINT rwrist
							{
								OFFSET -0.269108 0.006794 -0.006027
								CHANNELS 3 Zrotation Yrotation Xrotation
								End Site
								{
									OFFSET 0.000000 0.000000 0.000000
								}
							}
						}
					}
				}
			}
		}
	}
}
MOTION
Frames: 7
Frame Time: 0.033333
0.597689 0.252287 0.980390 -85.793290 5.567118 76.123398 5.086138 3.521105 22.732721 -2.072078 -19.441196 10.592248 4.004305 16.208245 -26.071677 0.000000 -0.000000 0.000000 -10.239749 -0.773698 -41.948110 1.855858 -15.531433 30.612090 15.946437 -10.821727 18.598825 0.000000 -0.000000 0.000000 0.808935 -13.321522 20.171643 8.844094 -4.822841 -3.021358 5.837262 -5.826127 0.624818 2.267887 6.140554 -3.863206 -1.339006 2.240725 2.762727 -20.653210 -1.332410 1.730058 -51.439121 -17.906219 7.266364 10.470642 -41.976127 8.179764 -0.202532 -3.849330 2.686482 28.363110 -3.155620 -0.900802 54.187021 -2.421058 14.420212 -12.786913 20.369949 -2.708219 -14.936407 -3.652217 7.909367 
0.574012 0.256286 0.976762 -84.817676 4.805147 77.411619 4.627003 3.054564 22.514844 -2.257792 -19.511088 11.341194 4.273144 15.947385 -26.122060 0.000000 -0.000000 0.000000 -10.451934 -0.196751 -39.821093 2.114822 -14.845445 31.654696 15.648639 -10.939453 21.106109 0.000000 -0.000000 0.000000 0.552316 -13.070595 18.851283 8.677333 -4.850054 -2.840736 5.776711 -6.000217 0.387980 1.616749 5.223565 -4.313109 -1.172303 2.988386 1.952380 -21.436548 -0.512065 1.325119 -52.029121 -16.414163 7.710396 8.012149 -42.985928 12.482039 -2.152654 -4.330789 4.370561 27.888965 -3.282596 -0.811075 55.065599 -2.008563 14.382693 -12.759023 20.980364 -2.564795 -14.836725 -3.337420 7.607321 
0.548925 0.261841 0.972328 -84.125832 3.868290 78.859792 4.050845 2.380642 22.139985 -2.636237 -19.329936 12.260833 4.316564 15.766903 -25.944066 0.000000 -0.000000 0.000000 -10.215412 0.723404 -37.139342 2.074392 -13.832578 32.090352 15.131274 -11.037203 22.644205 0.000000 -0.000000 0.000000 0.187383 -12.483885 17.061287 8.285241 -4.721451 -2.596149 5.376326 -5.737581 0.208113 1.792974 4.680533 -4.773540 -1.052348 2.823495 1.868839 -21.801298 0.091222 1.530780 -53.057162 -15.169845 8.477374 6.573245 -43.102797 15.045813 -3.545829 -4.497201 5.466207 27.825063 -3.425359 -0.833039 55.725942 -1.945203 14.752611 -12.703704 21.374864 -2.177041 -14.495959 -3.191267 6.890786 
0.521814 0.268670 0.967268 -83.527144 2.807661 80.422413 3.474613 1.677867 21.653950 -3.132748 -19.160270 13.378477 4.239442 15.617137 -25.556555 0.000000 -0.000000 0.000000 -9.580480 1.400747 -34.118324 1.809480 -12.915634 32.543215 14.836181 -11.426496 23.686027 0.000000 -0.000000 0.000000 -0.238596 -11.711582 14.848604 7.811069 -4.665290 -2.204944 4.869033 -5.386588 -0.017765 1.926365 4.037367 -5.021532 -0.937729 2.799615 1.794509 -22.246212 0.889235 1.707592 -54.050783 -13.561205 9.264002 5.159265 -42.373159 17.035381 -3.091486 -4.585545 6.182178 27.672592 -3.410802 -0.934960 56.261351 -2.052510 15.469599 -12.293873 21.396156 -1.182831 -14.526845 -3.022788 6.736149 
0.491650 0.277304 0.961831 -83.196914 2.091125 81.916219 3.861993 1.906609 21.196485 -3.725018 -19.513666 14.891564 3.299264 14.901518 -25.358748 0.000000 -0.000000 0.000000 -7.844727 1.957554 -30.518812 2.575592 -9.902703 32.484460 13.161089 -8.682838 13.961271 0.000000 -0.000000 0.000000 -0.225547 -10.712450 12.321455 7.257850 -4.673051 -1.700428 4.132883 -4.976361 -0.387906 2.315675 4.417560 -5.131301 -1.081374 1.622907 2.198984 -22.610333 1.832474 1.492467 -54.982454 -11.192860 9.589264 3.607251 -40.907825 19.031842 -2.487678 -4.370718 5.988064 27.609621 -3.327357 -0.852364 56.460213 -2.221465 14.948080 -11.298789 21.476448 1.292157 -14.433162 -3.015158 6.444172 
0.459584 0.287578 0.956878 -83.376026 1.823443 83.142279 4.918497 2.786645 20.607043 -4.279478 -19.888362 17.427521 1.654646 13.721228 -24.889193 0.000000 -0.000000 0.000000 -4.981942 2.057538 -27.307249 2.500892 -6.086411 30.448359 9.190673 -6.343257 1.302503 0.000000 -0.000000 0.000000 0.234003 -9.499607 10.130345 6.472241 -4.380714 -1.502724 3.456608 -4.547864 -0.605118 2.519250 5.010228 -5.236126 -1.072860 0.545131 2.663185 -22.917709 3.011530 0.948045 -55.712036 -8.487717 9.338536 2.225341 -39.057809 21.198229 -3.394662 -3.341360 5.473440 27.576440 -3.230413 -0.664481 56.458329 -2.218940 13.765446 -10.151993 21.453213 4.169310 -14.121611 -3.225099 6.291509 
0.427437 0.298052 0.954172 -84.274948 1.764678 83.827279 5.412337 2.811461 19.845432 -4.988921 -19.228734 21.480765 -0.095330 13.172932 -22.965747 0.000000 -0.000000 0.000000 -2.638797 2.447303 -25.204433 1.984486 -4.705782 29.421628 5.544115 -6.171918 -5.677405 0.000000 -0.000000 0.000000 0.854824 -8.225167 8.658709 5.660729 -3.518278 -1.211888 2.746618 -3.888907 -0.860753 2.412313 5.124136 -5.399336 -1.042936 -0.393200 2.812470 -23.426913 4.196481 0.415983 -56.130136 -5.932765 9.025271 1.826459 -36.668034 22.258433 -4.600682 -2.200272 5.799636 27.659047 -2.969881 -0.366508 56.241475 -1.707148 12.943483 -9.420350 20.997365 6.022569 -14.006522 -3.791103 5.644976 
